<svg width="766" height="129" xmlns="http://www.w3.org/2000/svg">
 <metadata id="metadata8">image/svg+xml</metadata>

 <g>
  <title>background</title>
  <rect fill="none" id="canvas_background" height="131" width="768" y="-1" x="-1"/>
 </g>
 <g>
  <title>Layer 1</title>
  <g id="g10" transform="matrix(1.3333333,0,0,-1.3333333,0,460.10667) ">
   <g id="g12" transform="translate(-3,121.5) scale(0.10000000149011612) ">
    <path fill="#231f20" fill-rule="nonzero" d="m964.43195,3993.66482l-17.109,39.56l-147.09,349.96c-48.578,123.86 -169.672,207.54 -306.168,207.54c-184.684,0 -334.508,-156.43 -334.508,-349.48c0,-192.87 149.824,-349.39 334.508,-349.39c128.941,0 240.808,76.12 296.68,187.57l59.472,-143.17c-84.336,-107.48 -212.64,-175.94 -356.152,-175.94c-254.379,0 -460.547,215.17 -460.547,480.93c0,265.73 206.168,481.11 460.547,481.11c191.965,0 347.004,-106.98 425.793,-296.74c5.879,-14.73 83.23,-203.48 150.76,-364.16c41.7,-99.38 77.26,-165.42 192.93,-169.47c113.28,-4 191.33,68.01 191.33,159.25c0,89.11 -59.58,110.54 -159.78,145.35c-180.13,61.96 -273.228,124.25 -273.228,273.48c0,145.56 94.728,242.65 248.968,242.65c100.24,0 172.91,-46.67 223.13,-139.65l-98.67,-52.58c-37.02,54.19 -77.95,75.63 -130.01,75.63c-72.41,0 -123.86,-52.57 -123.86,-122.43c0,-99.22 85,-114.16 203.76,-154.8c159.95,-54.41 234.26,-116.58 234.26,-271.68c0,-162.93 -133.83,-281.66 -308.61,-281.38c-161.06,0.74 -246.933,82.93 -306.406,227.84" id="path14"/>
    <path fill="#231f20" fill-rule="nonzero" d="m5770.15795,3931.91482l-26.81,0l0,84.91l-0.63,0l-29.5,-84.91l-19.19,0l-29.61,84.91l-0.6,0l0,-84.91l-26.76,0l0,119.85l37.96,0l28.73,-78.82l28.78,78.82l37.63,0l0,-119.85zm-147.76,96.64l-32.68,0l0,-96.64l-28.36,0l0,96.64l-32.63,0l0,23.21l93.67,0l0,-23.21" id="path16"/>
    <path fill="#231f20" fill-rule="nonzero" d="m2043.42795,4510.47482l115.41,0c46.32,0 78.4,24.68 78.4,75.18c0,50.42 -32.08,75.15 -78.4,75.15l-115.41,0l0,-150.33zm-33.47,180.13l156.27,0c63.12,0 104.52,-38.55 104.52,-104.95c0,-66.43 -41.4,-105.06 -104.52,-105.06l-122.8,0l0,-157.53l-33.47,0l0,367.54" id="path18"/>
    <path fill="#231f20" fill-rule="nonzero" d="m2332.86795,4455.89482c0,-56.62 29.61,-113.24 89.21,-113.24c59.68,0 89.25,56.62 89.25,113.24c0,56.65 -29.57,113.25 -89.25,113.25c-59.6,0 -89.21,-56.6 -89.21,-113.25zm209.5,0c0,-76.21 -42.37,-140.54 -120.29,-140.54c-77.89,0 -120.29,64.33 -120.29,140.54c0,76.21 42.4,140.57 120.29,140.57c77.92,0 120.29,-64.36 120.29,-140.57" id="path20"/>
    <path fill="#231f20" fill-rule="nonzero" d="m2563.08795,4588.69482l33.01,0l65.09,-227.53l1.01,0l62.11,227.53l34.98,0l62.15,-227.53l0.96,0l65.1,227.53l33.02,0l-81.83,-265.63l-34.05,0l-62.59,223.4l-0.97,0l-62.14,-223.4l-33.98,0l-81.87,265.63" id="path22"/>
    <path fill="#231f20" fill-rule="nonzero" d="m3136.93795,4474.45482c-1.47,48.89 -30.58,94.69 -80.87,94.69c-50.78,0 -78.85,-46.3 -83.8,-94.69l164.67,0zm-164.67,-27.32c0.5,-47.35 24.17,-104.48 83.8,-104.48c45.37,0 70.03,27.8 79.87,67.92l31.06,0c-13.29,-60.22 -46.8,-95.22 -110.93,-95.22c-80.83,0 -114.8,64.87 -114.8,140.54c0,69.99 33.97,140.57 114.8,140.57c81.87,0 114.41,-74.63 111.95,-149.33l-195.75,0" id="path24"/>
    <path fill="#231f20" fill-rule="nonzero" d="m3209.90795,4588.69482l28.6,0l0,-62.29l0.97,0c15.73,42.74 50.3,67.97 96.14,65.92l0,-32.42c-56.21,3.03 -94.7,-40.16 -94.7,-95.26l0,-141.58l-31.01,0l0,265.63" id="path26"/>
    <path fill="#231f20" fill-rule="nonzero" d="m3539.30795,4474.45482c-1.48,48.89 -30.55,94.69 -80.87,94.69c-50.77,0 -78.86,-46.3 -83.8,-94.69l164.67,0zm-164.67,-27.32c0.51,-47.35 24.2,-104.48 83.8,-104.48c45.38,0 70.01,27.8 79.87,67.92l31.06,0c-13.3,-60.22 -46.8,-95.22 -110.93,-95.22c-80.83,0 -114.84,64.87 -114.84,140.54c0,69.99 34.01,140.57 114.84,140.57c81.86,0 114.37,-74.63 111.94,-149.33l-195.74,0" id="path28"/>
    <path fill="#231f20" fill-rule="nonzero" d="m3715.79795,4342.65482c66.05,0 89.25,58.19 89.25,113.24c0,55.09 -23.2,113.25 -89.25,113.25c-59.14,0 -83.34,-58.16 -83.34,-113.25c0,-55.05 24.2,-113.24 83.34,-113.24zm120.29,-19.59l-28.61,0l0,50.48l-0.97,0c-13.33,-34.46 -53.76,-58.19 -90.71,-58.19c-77.39,0 -114.37,65.39 -114.37,140.54c0,75.15 36.98,140.57 114.37,140.57c37.97,0 74.94,-20.09 88.24,-58.18l1.01,0l0,152.32l31.04,0l0,-367.54" id="path30"/>
    <path fill="#231f20" fill-rule="nonzero" d="m4152.57795,4569.14482c-66.02,0 -89.21,-58.16 -89.21,-113.25c0,-55.05 23.19,-113.24 89.21,-113.24c59.16,0 83.34,58.19 83.34,113.24c0,55.09 -24.18,113.25 -83.34,113.25zm-120.3,121.46l31.09,0l0,-152.32l1,0c13.3,38.09 50.25,58.18 88.21,58.18c77.4,0 114.41,-65.42 114.41,-140.57c0,-75.15 -37.01,-140.54 -114.41,-140.54c-40.89,0 -76.42,22.19 -90.72,58.19l-0.96,0l0,-50.48l-28.62,0l0,367.54" id="path32"/>
    <path fill="#231f20" fill-rule="nonzero" d="m4286.67795,4588.69482l33.05,0l83.79,-226.52l78.39,226.52l31.05,0l-110.44,-306.28c-17.71,-44.77 -28.11,-57.67 -67.02,-57.67c-12.37,0.53 -18.75,0.53 -23.66,2.62l0,27.25c7.39,-1.54 14.3,-2.55 21.18,-2.55c27.6,0 34.02,16.96 44.38,41.65l10.86,30.36l-101.58,264.62" id="path34"/>
    <path fill="#231f20" fill-rule="nonzero" d="m2084.39795,3943.59482l107.45,0l-52.72,158.05l-1.47,0l-53.26,-158.05zm21.65,221.38l65.63,0l135.53,-367.56l-66.03,0l-33.02,97.27l-140.54,0l-33,-97.27l-63.62,0l135.05,367.56" id="path36"/>
    <path fill="#231f20" fill-rule="nonzero" d="m2556.66795,3797.41482l-55.2,0l0,37.08l-1,0c-13.8,-26.79 -44.38,-44.32 -72.44,-44.32c-66.56,0 -95.16,35.04 -95.16,104.51l0,168.86l56.2,0l0,-163.22c0,-46.78 18.24,-63.85 48.78,-63.85c46.85,0 62.62,31.44 62.62,72.65l0,154.42l56.2,0l0,-266.13" id="path38"/>
    <path fill="#231f20" fill-rule="nonzero" d="m2730.21795,3836.47482c50.26,0 71.51,47.92 71.51,94.25c0,58.69 -27.13,93.68 -70.5,93.68c-52.8,0 -71.5,-48.92 -71.5,-96.75c0,-45.84 21.64,-91.18 70.49,-91.18zm125.7,-39.06l-53.23,0l0,36.02l-0.96,0c-14.85,-30.34 -46.85,-43.26 -78.92,-43.26c-80.37,0 -119.3,62.32 -119.3,142.08c0,96.3 54.71,138.48 110.41,138.48c32.07,0 67.56,-12.36 84.83,-41.69l0.98,0l0,135.93l56.19,0l0,-367.56" id="path40"/>
    <path fill="#231f20" fill-rule="nonzero" d="m2918.53795,4063.54482l56.21,0l0,-266.13l-56.21,0l0,266.13zm0,101.43l56.21,0l0,-55.58l-56.21,0l0,55.58" id="path42"/>
    <path fill="#231f20" fill-rule="nonzero" d="m3225.14795,3930.72482c0,45.82 -22.11,93.68 -72.45,93.68c-50.24,0 -72.48,-47.86 -72.48,-93.68c0,-46.33 22.24,-94.25 72.48,-94.25c50.34,0 72.45,47.92 72.45,94.25zm-201.12,0c0,81.3 46.89,140.01 128.67,140.01c81.87,0 128.72,-58.71 128.72,-140.01c0,-81.86 -46.85,-140.55 -128.72,-140.55c-81.78,0 -128.67,58.69 -128.67,140.55" id="path44"/>
    <path fill="#231f20" fill-rule="nonzero" d="m3370.62795,3882.84482c2.93,-33.98 27.6,-46.37 57.66,-46.37c21.2,0 58.15,4.67 56.72,35.03c-1.5,30.84 -42.43,34.52 -83.3,44.31c-41.48,9.28 -81.87,24.71 -81.87,78.76c0,58.16 60.15,76.16 106.49,76.16c52.23,0 99.58,-22.65 106.5,-81.82l-58.68,0c-4.95,27.81 -27.13,35.49 -51.76,35.49c-16.28,0 -46.35,-4.08 -46.35,-27.24c0,-28.82 41.37,-32.95 82.81,-42.71c40.95,-9.81 82.33,-25.27 82.33,-77.77c0,-63.34 -61.14,-86.51 -113.84,-86.51c-64.13,0 -111.94,29.88 -112.91,92.67l56.2,0" id="path46"/>
    <path fill="#231f20" fill-rule="nonzero" d="m3756.11795,3974.47482c-4.43,32.42 -27.13,49.93 -58.16,49.93c-29.08,0 -70.03,-15.91 -70.03,-96.75c0,-44.31 18.77,-91.18 67.58,-91.18c32.56,0 55.17,22.69 60.61,60.79l56.21,0c-10.32,-68.98 -51.26,-107.09 -116.82,-107.09c-79.89,0 -123.76,59.22 -123.76,137.48c0,80.28 41.91,143.08 125.7,143.08c59.19,0 109.47,-30.91 114.88,-96.26l-56.21,0" id="path48"/>
    <path fill="#231f20" fill-rule="nonzero" d="m3858.16795,4063.54482l52.77,0l0,-51.52l0.97,0c6.41,28.31 39.95,58.71 74.49,58.71c12.79,0 16.23,-1.04 21.17,-1.53l0,-56.67c-7.88,1.1 -16.25,2.66 -24.15,2.66c-38.47,0 -69.02,-32.48 -69.02,-91.14l0,-126.64l-56.23,0l0,266.13" id="path50"/>
    <path fill="#231f20" fill-rule="nonzero" d="m4212.26795,3930.72482c0,45.82 -22.19,93.68 -72.49,93.68c-50.28,0 -72.47,-47.86 -72.47,-93.68c0,-46.33 22.19,-94.25 72.47,-94.25c50.3,0 72.49,47.92 72.49,94.25zm-201.16,0c0,81.3 46.81,140.01 128.67,140.01c81.83,0 128.66,-58.71 128.66,-140.01c0,-81.86 -46.83,-140.55 -128.66,-140.55c-81.86,0 -128.67,58.69 -128.67,140.55" id="path52"/>
    <path fill="#231f20" fill-rule="nonzero" d="m4442.47795,4024.40482c-47.31,0 -71.5,-37.55 -71.5,-94.17c0,-53.55 26.13,-93.76 71.5,-93.76c51.26,0 70.48,47.38 70.48,93.76c0,48.39 -24.15,94.17 -70.48,94.17zm-125.73,140.57l56.23,0l0,-135.93l0.94,0c15.31,25.75 47.38,41.69 75.94,41.69c80.36,0 119.3,-63.84 119.3,-141.55c0,-71.57 -34.51,-139.01 -109.9,-139.01c-34.55,0 -71.51,8.76 -88.28,43.8l-1.01,0l0,-36.56l-53.22,0l0,367.56" id="path54"/>
    <path fill="#231f20" fill-rule="nonzero" d="m4743.66795,4024.40482c-47.3,0 -71.46,-37.55 -71.46,-94.17c0,-53.55 26.13,-93.76 71.46,-93.76c51.33,0 70.51,47.38 70.51,93.76c0,48.39 -24.13,94.17 -70.51,94.17zm-125.69,140.57l56.19,0l0,-135.93l0.98,0c15.3,25.75 47.35,41.69 75.95,41.69c80.36,0 119.28,-63.84 119.28,-141.55c0,-71.57 -34.51,-139.01 -109.93,-139.01c-34.48,0 -71.47,8.76 -88.24,43.8l-0.97,0l0,-36.56l-53.26,0l0,367.56" id="path56"/>
    <path fill="#231f20" fill-rule="nonzero" d="m4919.19795,4164.97482l56.16,0l0,-367.56l-56.16,0l0,367.56" id="path58"/>
    <path fill="#231f20" fill-rule="nonzero" d="m5211.53795,3953.90482c-1.97,37.07 -26.12,70.5 -64.06,70.5c-38.99,0 -65.59,-30.88 -67.06,-70.5l131.12,0zm-131.12,-38.6c0,-41.73 21.69,-78.83 68.51,-78.83c32.54,0 52.25,15.01 62.14,44.32l53.23,0c-12.33,-58.2 -59.65,-90.62 -115.37,-90.62c-79.87,0 -124.72,58.21 -124.72,140.06c0,75.65 47.32,140.5 123.27,140.5c80.36,0 129.61,-75.69 120.26,-155.43l-187.32,0" id="path60"/>
    <path fill="#231f20" fill-rule="nonzero" d="m5310.62795,4063.54482l52.79,0l0,-51.52l0.95,0c6.42,28.31 39.91,58.71 74.45,58.71c12.84,0 16.25,-1.04 21.18,-1.53l0,-56.67c-7.89,1.1 -16.23,2.66 -24.15,2.66c-38.47,0 -69.01,-32.48 -69.01,-91.14l0,-126.64l-56.21,0l0,266.13" id="path62"/>
    <path fill="#656263" fill-rule="nonzero" d="m964.43195,1504.88382l-17.109,39.571l-147.09,349.949c-48.578,123.851 -169.672,207.531 -306.168,207.531c-184.684,0 -334.508,-156.43 -334.508,-349.48c0,-192.871 149.824,-349.391 334.508,-349.391c128.941,0 240.808,76.141 296.68,187.582l59.472,-143.172c-84.336,-107.4881 -212.64,-175.949 -356.152,-175.949c-254.379,0 -460.547,215.18 -460.547,480.93c0,265.742 206.168,481.121 460.547,481.121c191.965,0 347.004,-106.992 425.793,-296.742c5.879,-14.727 83.23,-203.489 150.76,-364.161c41.7,-99.367 77.26,-165.429 192.93,-169.468c113.28,-4.008 191.33,68.011 191.33,159.242c0,89.109 -59.58,110.527 -159.78,145.359c-180.13,61.949 -273.228,124.25 -273.228,273.469c0,145.57 94.728,242.66 248.968,242.66c100.24,0 172.91,-46.672 223.13,-139.66l-98.67,-52.57c-37.02,54.179 -77.95,75.64 -130.01,75.64c-72.41,0 -123.86,-52.582 -123.86,-122.449c0,-99.223 85,-114.152 203.76,-154.812c159.95,-54.379 234.26,-116.559 234.26,-271.661c0,-162.937 -133.83,-281.65581 -308.61,-281.36675c-161.06,0.71875 -246.933,82.92965 -306.406,227.82775" id="path64"/>
    <path fill="#656263" fill-rule="nonzero" d="m5770.15795,1443.12682l-26.81,0l0,84.918l-0.63,0l-29.5,-84.918l-19.19,0l-29.61,84.918l-0.6,0l0,-84.918l-26.76,0l0,119.847l37.96,0l28.73,-78.808l28.78,78.808l37.63,0l0,-119.847zm-147.76,96.628l-32.68,0l0,-96.628l-28.36,0l0,96.628l-32.63,0l0,23.219l93.67,0l0,-23.219" id="path66"/>
    <path fill="#656263" fill-rule="nonzero" d="m2043.42795,2021.68482l115.41,0c46.32,0 78.4,24.692 78.4,75.18c0,50.422 -32.08,75.16 -78.4,75.16l-115.41,0l0,-150.34zm-33.47,180.121l156.27,0c63.12,0 104.52,-38.531 104.52,-104.941c0,-66.442 -41.4,-105.059 -104.52,-105.059l-122.8,0l0,-157.531l-33.47,0l0,367.531" id="path68"/>
    <path fill="#656263" fill-rule="nonzero" d="m2332.86795,1967.10682c0,-56.621 29.61,-113.25 89.21,-113.25c59.68,0 89.25,56.629 89.25,113.25c0,56.668 -29.57,113.27 -89.25,113.27c-59.6,0 -89.21,-56.602 -89.21,-113.27zm209.5,0c0,-76.203 -42.37,-140.531 -120.29,-140.531c-77.89,0 -120.29,64.328 -120.29,140.531c0,76.207 42.4,140.566 120.29,140.566c77.92,0 120.29,-64.359 120.29,-140.566" id="path70"/>
    <path fill="#656263" fill-rule="nonzero" d="m2563.08795,2099.91582l33.01,0l65.09,-227.539l1.01,0l62.11,227.539l34.98,0l62.15,-227.539l0.96,0l65.1,227.539l33.02,0l-81.83,-265.641l-34.05,0l-62.59,223.398l-0.97,0l-62.14,-223.398l-33.98,0l-81.87,265.641" id="path72"/>
    <path fill="#656263" fill-rule="nonzero" d="m3136.93795,1985.68482c-1.47,48.879 -30.58,94.692 -80.87,94.692c-50.78,0 -78.85,-46.301 -83.8,-94.692l164.67,0zm-164.67,-27.34c0.5,-47.34 24.17,-104.488 83.8,-104.488c45.37,0 70.03,27.816 79.87,67.93l31.06,0c-13.29,-60.223 -46.8,-95.211 -110.93,-95.211c-80.83,0 -114.8,64.84 -114.8,140.531c0,70.008 33.97,140.566 114.8,140.566c81.87,0 114.41,-74.617 111.95,-149.328l-195.75,0" id="path74"/>
    <path fill="#656263" fill-rule="nonzero" d="m3209.90795,2099.91582l28.6,0l0,-62.301l0.97,0c15.73,42.762 50.3,67.98 96.14,65.91l0,-32.41c-56.21,3.031 -94.7,-40.149 -94.7,-95.25l0,-141.59l-31.01,0l0,265.641" id="path76"/>
    <path fill="#656263" fill-rule="nonzero" d="m3539.30795,1985.68482c-1.48,48.879 -30.55,94.692 -80.87,94.692c-50.77,0 -78.86,-46.301 -83.8,-94.692l164.67,0zm-164.67,-27.34c0.51,-47.34 24.2,-104.488 83.8,-104.488c45.38,0 70.01,27.816 79.87,67.93l31.06,0c-13.3,-60.223 -46.8,-95.211 -110.93,-95.211c-80.83,0 -114.84,64.84 -114.84,140.531c0,70.008 34.01,140.566 114.84,140.566c81.86,0 114.37,-74.617 111.94,-149.328l-195.74,0" id="path78"/>
    <path fill="#656263" fill-rule="nonzero" d="m3715.79795,1853.85682c66.05,0 89.25,58.199 89.25,113.25c0,55.098 -23.2,113.27 -89.25,113.27c-59.14,0 -83.34,-58.172 -83.34,-113.27c0,-55.051 24.2,-113.25 83.34,-113.25zm120.29,-19.582l-28.61,0l0,50.488l-0.97,0c-13.33,-34.468 -53.76,-58.187 -90.71,-58.187c-77.39,0 -114.37,65.39 -114.37,140.531c0,75.156 36.98,140.566 114.37,140.566c37.97,0 74.94,-20.089 88.24,-58.179l1.01,0l0,152.312l31.04,0l0,-367.531" id="path80"/>
    <path fill="#656263" fill-rule="nonzero" d="m4152.57795,2080.37682c-66.02,0 -89.21,-58.172 -89.21,-113.27c0,-55.051 23.19,-113.25 89.21,-113.25c59.16,0 83.34,58.199 83.34,113.25c0,55.098 -24.18,113.27 -83.34,113.27zm-120.3,121.429l31.09,0l0,-152.312l1,0c13.3,38.09 50.25,58.179 88.21,58.179c77.4,0 114.41,-65.41 114.41,-140.566c0,-75.141 -37.01,-140.531 -114.41,-140.531c-40.89,0 -76.42,22.179 -90.72,58.187l-0.96,0l0,-50.488l-28.62,0l0,367.531" id="path82"/>
    <path fill="#656263" fill-rule="nonzero" d="m4286.67795,2099.91582l33.05,0l83.79,-226.52l78.39,226.52l31.05,0l-110.44,-306.27c-17.71,-44.781 -28.11,-57.691 -67.02,-57.691c-12.37,0.531 -18.75,0.531 -23.66,2.621l0,27.258c7.39,-1.539 14.3,-2.547 21.18,-2.547c27.6,0 34.02,16.949 44.38,41.66l10.86,30.348l-101.58,264.621" id="path84"/>
    <path fill="#656263" fill-rule="nonzero" d="m2084.39795,1454.80582l107.45,0l-52.72,158.051l-1.47,0l-53.26,-158.051zm21.65,221.379l65.63,0l135.53,-367.5702l-66.03,0l-33.02,97.2812l-140.54,0l-33,-97.2812l-63.62,0l135.05,367.5702" id="path86"/>
    <path fill="#656263" fill-rule="nonzero" d="m2556.66795,1308.61462l-55.2,0l0,37.1016l-1,0c-13.8,-26.8008 -44.38,-44.3203 -72.44,-44.3203c-66.56,0 -95.16,35.0273 -95.16,104.4999l0,168.867l56.2,0l0,-163.218c0,-46.7817 18.24,-63.8481 48.78,-63.8481c46.85,0 62.62,31.4371 62.62,72.6481l0,154.418l56.2,0l0,-266.1482" id="path88"/>
    <path fill="#656263" fill-rule="nonzero" d="m2730.21795,1347.69672c50.26,0 71.51,47.8981 71.51,94.2261c0,58.704 -27.13,93.684 -70.5,93.684c-52.8,0 -71.5,-48.902 -71.5,-96.742c0,-45.848 21.64,-91.1681 70.49,-91.1681zm125.7,-39.0821l-53.23,0l0,36.0391l-0.96,0c-14.85,-30.3476 -46.85,-43.2578 -78.92,-43.2578c-80.37,0 -119.3,62.3203 -119.3,142.0699c0,96.289 54.71,138.481 110.41,138.481c32.07,0 67.56,-12.352 84.83,-41.684l0.98,0l0,135.922l56.19,0l0,-367.5702" id="path90"/>
    <path fill="#656263" fill-rule="nonzero" d="m2918.53795,1574.76282l56.21,0l0,-266.1482l-56.21,0l0,266.1482zm0,101.422l56.21,0l0,-55.578l-56.21,0l0,55.578" id="path92"/>
    <path fill="#656263" fill-rule="nonzero" d="m3225.14795,1441.92282c0,45.821 -22.11,93.684 -72.45,93.684c-50.24,0 -72.48,-47.863 -72.48,-93.684c0,-46.328 22.24,-94.2261 72.48,-94.2261c50.34,0 72.45,47.8981 72.45,94.2261zm-201.12,0c0,81.313 46.89,140.024 128.67,140.024c81.87,0 128.72,-58.711 128.72,-140.024c0,-81.8589 -46.85,-140.5269 -128.72,-140.5269c-81.78,0 -128.67,58.668 -128.67,140.5269" id="path94"/>
    <path fill="#656263" fill-rule="nonzero" d="m3370.62795,1394.06382c2.93,-33.9999 27.6,-46.3671 57.66,-46.3671c21.2,0 58.15,4.6679 56.72,35.0271c-1.5,30.84 -42.43,34.512 -83.3,44.321c-41.48,9.269 -81.87,24.699 -81.87,78.742c0,58.168 60.15,76.16 106.49,76.16c52.23,0 99.58,-22.641 106.5,-81.813l-58.68,0c-4.95,27.813 -27.13,35.473 -51.76,35.473c-16.28,0 -46.35,-4.07 -46.35,-27.23c0,-28.821 41.37,-32.942 82.81,-42.711c40.95,-9.801 82.33,-25.262 82.33,-77.782c0,-63.3199 -61.14,-86.4879 -113.84,-86.4879c-64.13,0 -111.94,29.8672 -112.91,92.6679l56.2,0" id="path96"/>
    <path fill="#656263" fill-rule="nonzero" d="m3756.11795,1485.69682c-4.43,32.418 -27.13,49.91 -58.16,49.91c-29.08,0 -70.03,-15.91 -70.03,-96.742c0,-44.301 18.77,-91.1681 67.58,-91.1681c32.56,0 55.17,22.6875 60.61,60.7891l56.21,0c-10.32,-68.9805 -51.26,-107.0899 -116.82,-107.0899c-79.89,0 -123.76,59.2187 -123.76,137.4689c0,80.281 41.91,143.082 125.7,143.082c59.19,0 109.47,-30.91 114.88,-96.25l-56.21,0" id="path98"/>
    <path fill="#656263" fill-rule="nonzero" d="m3858.16795,1574.76282l52.77,0l0,-51.527l0.97,0c6.41,28.328 39.95,58.711 74.49,58.711c12.79,0 16.23,-1.051 21.17,-1.524l0,-56.668c-7.88,1.079 -16.25,2.661 -24.15,2.661c-38.47,0 -69.02,-32.5 -69.02,-91.141l0,-126.6602l-56.23,0l0,266.1482" id="path100"/>
    <path fill="#656263" fill-rule="nonzero" d="m4212.26795,1441.92282c0,45.821 -22.19,93.684 -72.49,93.684c-50.28,0 -72.47,-47.863 -72.47,-93.684c0,-46.328 22.19,-94.2261 72.47,-94.2261c50.3,0 72.49,47.8981 72.49,94.2261zm-201.16,0c0,81.313 46.81,140.024 128.67,140.024c81.83,0 128.66,-58.711 128.66,-140.024c0,-81.8589 -46.83,-140.5269 -128.66,-140.5269c-81.86,0 -128.67,58.668 -128.67,140.5269" id="path102"/>
    <path fill="#656263" fill-rule="nonzero" d="m4442.47795,1535.60682c-47.31,0 -71.5,-37.543 -71.5,-94.16c0,-53.563 26.13,-93.7501 71.5,-93.7501c51.26,0 70.48,47.3791 70.48,93.7501c0,48.398 -24.15,94.16 -70.48,94.16zm-125.73,140.578l56.23,0l0,-135.922l0.94,0c15.31,25.742 47.38,41.684 75.94,41.684c80.36,0 119.3,-63.832 119.3,-141.543c0,-71.5704 -34.51,-139.0079 -109.9,-139.0079c-34.55,0 -71.51,8.7578 -88.28,43.7891l-1.01,0l0,-36.5704l-53.22,0l0,367.5702" id="path104"/>
    <path fill="#656263" fill-rule="nonzero" d="m4743.66795,1535.60682c-47.3,0 -71.46,-37.543 -71.46,-94.16c0,-53.563 26.13,-93.7501 71.46,-93.7501c51.33,0 70.51,47.3791 70.51,93.7501c0,48.398 -24.13,94.16 -70.51,94.16zm-125.69,140.578l56.19,0l0,-135.922l0.98,0c15.3,25.742 47.35,41.684 75.95,41.684c80.36,0 119.28,-63.832 119.28,-141.543c0,-71.5704 -34.51,-139.0079 -109.93,-139.0079c-34.48,0 -71.47,8.7578 -88.24,43.7891l-0.97,0l0,-36.5704l-53.26,0l0,367.5702" id="path106"/>
    <path fill="#656263" fill-rule="nonzero" d="m4919.19795,1676.18482l56.16,0l0,-367.5702l-56.16,0l0,367.5702" id="path108"/>
    <path fill="#656263" fill-rule="nonzero" d="m5211.53795,1465.09482c-1.97,37.102 -26.12,70.512 -64.06,70.512c-38.99,0 -65.59,-30.871 -67.06,-70.512l131.12,0zm-131.12,-38.582c0,-41.726 21.69,-78.8161 68.51,-78.8161c32.54,0 52.25,15 62.14,44.3081l53.23,0c-12.33,-58.1909 -59.65,-90.6089 -115.37,-90.6089c-79.87,0 -124.72,58.2109 -124.72,140.0509c0,75.66 47.32,140.5 123.27,140.5c80.36,0 129.61,-75.672 120.26,-155.434l-187.32,0" id="path110"/>
    <path fill="#656263" fill-rule="nonzero" d="m5310.62795,1574.76282l52.79,0l0,-51.527l0.95,0c6.42,28.328 39.91,58.711 74.45,58.711c12.84,0 16.25,-1.051 21.18,-1.524l0,-56.668c-7.89,1.079 -16.23,2.661 -24.15,2.661c-38.47,0 -69.01,-32.5 -69.01,-91.141l0,-126.6602l-56.21,0l0,266.1482" id="path112"/>
   </g>
  </g>
 </g>
</svg>
